<?xml version="1.0" encoding="utf-8"?>
<svg version="1.1" xmlns:xlink="http://www.w3.org/1999/xlink" width="62px" height="30px" xmlns="http://www.w3.org/2000/svg">
  <defs>
    <pattern id="BGPattern" patternUnits="userSpaceOnUse" alignment="0 0" imageRepeat="None" />
    <mask fill="white" id="Clip1011">
      <path d="M 57.57142857142858 2.4967490247074133  L 57.57142857142858 9.98699609882965  C 58.79389880952382 9.98699609882965  59.83761160714286 10.230819245773732  60.702566964285715 10.7184655396619  C 61.56752232142858 11.206111833550064  62 11.794538361508453  62 12.483745123537062  C 62 13.172951885565668  61.56752232142858 13.761378413524056  60.702566964285715 14.249024707412222  C 59.83761160714286 14.736671001300389  58.79389880952382 14.980494148244471  57.57142857142858 14.980494148244471  L 57.57142857142858 22.47074122236671  C 57.57142857142858 23.146944083224966  57.13318452380953 23.732119635890765  56.25669642857142 24.22626788036411  C 55.380208333333336 24.72041612483745  54.342261904761905 24.96749024707412  53.14285714285714 24.96749024707412  C 43.52455357142858 20.455136540962286  34.15997023809524 17.984395318595578  25.049107142857142 17.555266579973996  C 23.711309523809526 17.80234070221066  22.661830357142858 18.231469440832246  21.900669642857142 18.842652795838752  C 21.13950892857143 19.45383615084525  20.78199404761905 20.107282184655393  20.828125 20.802990897269183  C 20.874255952380953 21.498699609882962  21.335565476190478 22.100130039011702  22.21205357142857 22.607282184655396  C 21.75074404761905 23.036410923276982  21.48549107142857 23.46228868660598  21.416294642857142 23.884915474642394  C 21.34709821428571 24.307542262678805  21.416294642857142 24.684655396618986  21.62388392857143 25.016254876462938  C 21.83147321428571 25.347854356306893  22.217819940476193 25.705461638491546  22.782924107142858 26.089076723016905  C 23.348028273809526 26.472691807542265  23.901599702380953 26.79778933680104  24.443638392857142 27.064369310793236  C 24.985677083333336 27.330949284785437  25.694940476190478 27.6592977893368  26.57142857142857 28.049414824447332  C 25.902529761904766 28.803641092327698  24.61662946428571 29.343302990897268  22.71372767857143 29.668400520156048  C 20.810825892857142 29.99349804941483  18.867559523809526 30.068270481144342  16.88392857142857 29.892717815344604  C 14.90029761904762 29.717165149544865  13.377976190476193 29.356306892067618  12.316964285714285 28.810143042912873  C 12.155505952380954 28.5110533159948  11.815290178571429 27.942132639791936  11.296316964285715 27.103381014304293  C 10.77734375 26.264629388816648  10.408296130952383 25.650195058517554  10.189174107142856 25.260078023407022  C 9.970052083333334 24.869960988296487  9.704799107142856 24.291287386215863  9.393415178571429 23.52405721716515  C 9.08203125 22.75682704811443  8.909040178571429 22.100130039011702  8.874441964285715 21.553966189856958  C 8.839843750000002 21.00780234070221  8.880208333333334 20.367360208062415  8.995535714285715 19.63263979193758  C 9.110863095238097 18.897919375812744  9.364583333333334 18.17945383615084  9.756696428571429 17.477243172951884  L 5.535714285714286 17.477243172951884  C 4.013392857142858 17.477243172951884  2.7101934523809526 17.171651495448632  1.6261160714285714 16.560468140442133  C 0.5420386904761905 15.94928478543563  0 15.214564369310795  0 14.35630689206762  L 0 10.611183355006501  C 0 9.75292587776333  0.5420386904761905 9.01820546163849  1.6261160714285714 8.407022106631988  C 2.7101934523809526 7.795838751625484  4.013392857142858 7.490247074122236  5.535714285714286 8  L 22.142857142857142 8  C 32.176339285714285 7.490247074122236  42.50967261904763 4.993498049414823  53.14285714285714 0  C 54.342261904761905 0  55.380208333333336 0.24707412223666791  56.25669642857142 0.7412223667100137  C 57.13318452380953 1.235370611183353  57.57142857142858 1.8205461638491527  57.57142857142858 2.4967490247074133  Z M 26.57142857142857 15.11703511053316  C 35.267113095238095 15.663198959687906  44.124255952380956 17.880364109232765  53 21.76853055916775  L 53 3.159947984395318  C 44.05505952380953 7.08712613784135  35.19791666666667 9.317295188556564  26.57142857142857 9.850455136540964  L 26.57142857142857 15.11703511053316  Z " fill-rule="evenodd" />
    </mask>
  </defs>
  <g transform="matrix(1 0 0 1 -176 -5 )">
    <path d="M 57.57142857142858 2.4967490247074133  L 57.57142857142858 9.98699609882965  C 58.79389880952382 9.98699609882965  59.83761160714286 10.230819245773732  60.702566964285715 10.7184655396619  C 61.56752232142858 11.206111833550064  62 11.794538361508453  62 12.483745123537062  C 62 13.172951885565668  61.56752232142858 13.761378413524056  60.702566964285715 14.249024707412222  C 59.83761160714286 14.736671001300389  58.79389880952382 14.980494148244471  57.57142857142858 14.980494148244471  L 57.57142857142858 22.47074122236671  C 57.57142857142858 23.146944083224966  57.13318452380953 23.732119635890765  56.25669642857142 24.22626788036411  C 55.380208333333336 24.72041612483745  54.342261904761905 24.96749024707412  53.14285714285714 24.96749024707412  C 43.52455357142858 20.455136540962286  34.15997023809524 17.984395318595578  25.049107142857142 17.555266579973996  C 23.711309523809526 17.80234070221066  22.661830357142858 18.231469440832246  21.900669642857142 18.842652795838752  C 21.13950892857143 19.45383615084525  20.78199404761905 20.107282184655393  20.828125 20.802990897269183  C 20.874255952380953 21.498699609882962  21.335565476190478 22.100130039011702  22.21205357142857 22.607282184655396  C 21.75074404761905 23.036410923276982  21.48549107142857 23.46228868660598  21.416294642857142 23.884915474642394  C 21.34709821428571 24.307542262678805  21.416294642857142 24.684655396618986  21.62388392857143 25.016254876462938  C 21.83147321428571 25.347854356306893  22.217819940476193 25.705461638491546  22.782924107142858 26.089076723016905  C 23.348028273809526 26.472691807542265  23.901599702380953 26.79778933680104  24.443638392857142 27.064369310793236  C 24.985677083333336 27.330949284785437  25.694940476190478 27.6592977893368  26.57142857142857 28.049414824447332  C 25.902529761904766 28.803641092327698  24.61662946428571 29.343302990897268  22.71372767857143 29.668400520156048  C 20.810825892857142 29.99349804941483  18.867559523809526 30.068270481144342  16.88392857142857 29.892717815344604  C 14.90029761904762 29.717165149544865  13.377976190476193 29.356306892067618  12.316964285714285 28.810143042912873  C 12.155505952380954 28.5110533159948  11.815290178571429 27.942132639791936  11.296316964285715 27.103381014304293  C 10.77734375 26.264629388816648  10.408296130952383 25.650195058517554  10.189174107142856 25.260078023407022  C 9.970052083333334 24.869960988296487  9.704799107142856 24.291287386215863  9.393415178571429 23.52405721716515  C 9.08203125 22.75682704811443  8.909040178571429 22.100130039011702  8.874441964285715 21.553966189856958  C 8.839843750000002 21.00780234070221  8.880208333333334 20.367360208062415  8.995535714285715 19.63263979193758  C 9.110863095238097 18.897919375812744  9.364583333333334 18.17945383615084  9.756696428571429 17.477243172951884  L 5.535714285714286 17.477243172951884  C 4.013392857142858 17.477243172951884  2.7101934523809526 17.171651495448632  1.6261160714285714 16.560468140442133  C 0.5420386904761905 15.94928478543563  0 15.214564369310795  0 14.35630689206762  L 0 10.611183355006501  C 0 9.75292587776333  0.5420386904761905 9.01820546163849  1.6261160714285714 8.407022106631988  C 2.7101934523809526 7.795838751625484  4.013392857142858 7.490247074122236  5.535714285714286 8  L 22.142857142857142 8  C 32.176339285714285 7.490247074122236  42.50967261904763 4.993498049414823  53.14285714285714 0  C 54.342261904761905 0  55.380208333333336 0.24707412223666791  56.25669642857142 0.7412223667100137  C 57.13318452380953 1.235370611183353  57.57142857142858 1.8205461638491527  57.57142857142858 2.4967490247074133  Z M 26.57142857142857 15.11703511053316  C 35.267113095238095 15.663198959687906  44.124255952380956 17.880364109232765  53 21.76853055916775  L 53 3.159947984395318  C 44.05505952380953 7.08712613784135  35.19791666666667 9.317295188556564  26.57142857142857 9.850455136540964  L 26.57142857142857 15.11703511053316  Z " fill-rule="nonzero" fill="rgba(217, 0, 27, 0.27450980392156865)" stroke="none" transform="matrix(1 0 0 1 176 5 )" class="fill" />
    <path d="M 57.57142857142858 2.4967490247074133  L 57.57142857142858 9.98699609882965  C 58.79389880952382 9.98699609882965  59.83761160714286 10.230819245773732  60.702566964285715 10.7184655396619  C 61.56752232142858 11.206111833550064  62 11.794538361508453  62 12.483745123537062  C 62 13.172951885565668  61.56752232142858 13.761378413524056  60.702566964285715 14.249024707412222  C 59.83761160714286 14.736671001300389  58.79389880952382 14.980494148244471  57.57142857142858 14.980494148244471  L 57.57142857142858 22.47074122236671  C 57.57142857142858 23.146944083224966  57.13318452380953 23.732119635890765  56.25669642857142 24.22626788036411  C 55.380208333333336 24.72041612483745  54.342261904761905 24.96749024707412  53.14285714285714 24.96749024707412  C 43.52455357142858 20.455136540962286  34.15997023809524 17.984395318595578  25.049107142857142 17.555266579973996  C 23.711309523809526 17.80234070221066  22.661830357142858 18.231469440832246  21.900669642857142 18.842652795838752  C 21.13950892857143 19.45383615084525  20.78199404761905 20.107282184655393  20.828125 20.802990897269183  C 20.874255952380953 21.498699609882962  21.335565476190478 22.100130039011702  22.21205357142857 22.607282184655396  C 21.75074404761905 23.036410923276982  21.48549107142857 23.46228868660598  21.416294642857142 23.884915474642394  C 21.34709821428571 24.307542262678805  21.416294642857142 24.684655396618986  21.62388392857143 25.016254876462938  C 21.83147321428571 25.347854356306893  22.217819940476193 25.705461638491546  22.782924107142858 26.089076723016905  C 23.348028273809526 26.472691807542265  23.901599702380953 26.79778933680104  24.443638392857142 27.064369310793236  C 24.985677083333336 27.330949284785437  25.694940476190478 27.6592977893368  26.57142857142857 28.049414824447332  C 25.902529761904766 28.803641092327698  24.61662946428571 29.343302990897268  22.71372767857143 29.668400520156048  C 20.810825892857142 29.99349804941483  18.867559523809526 30.068270481144342  16.88392857142857 29.892717815344604  C 14.90029761904762 29.717165149544865  13.377976190476193 29.356306892067618  12.316964285714285 28.810143042912873  C 12.155505952380954 28.5110533159948  11.815290178571429 27.942132639791936  11.296316964285715 27.103381014304293  C 10.77734375 26.264629388816648  10.408296130952383 25.650195058517554  10.189174107142856 25.260078023407022  C 9.970052083333334 24.869960988296487  9.704799107142856 24.291287386215863  9.393415178571429 23.52405721716515  C 9.08203125 22.75682704811443  8.909040178571429 22.100130039011702  8.874441964285715 21.553966189856958  C 8.839843750000002 21.00780234070221  8.880208333333334 20.367360208062415  8.995535714285715 19.63263979193758  C 9.110863095238097 18.897919375812744  9.364583333333334 18.17945383615084  9.756696428571429 17.477243172951884  L 5.535714285714286 17.477243172951884  C 4.013392857142858 17.477243172951884  2.7101934523809526 17.171651495448632  1.6261160714285714 16.560468140442133  C 0.5420386904761905 15.94928478543563  0 15.214564369310795  0 14.35630689206762  L 0 10.611183355006501  C 0 9.75292587776333  0.5420386904761905 9.01820546163849  1.6261160714285714 8.407022106631988  C 2.7101934523809526 7.795838751625484  4.013392857142858 7.490247074122236  5.535714285714286 8  L 22.142857142857142 8  C 32.176339285714285 7.490247074122236  42.50967261904763 4.993498049414823  53.14285714285714 0  C 54.342261904761905 0  55.380208333333336 0.24707412223666791  56.25669642857142 0.7412223667100137  C 57.13318452380953 1.235370611183353  57.57142857142858 1.8205461638491527  57.57142857142858 2.4967490247074133  Z " stroke-width="0" stroke-dasharray="0" stroke="rgba(255, 255, 255, 0)" fill="none" transform="matrix(1 0 0 1 176 5 )" class="stroke" mask="url(#Clip1011)" />
    <path d="M 26.57142857142857 15.11703511053316  C 35.267113095238095 15.663198959687906  44.124255952380956 17.880364109232765  53 21.76853055916775  L 53 3.159947984395318  C 44.05505952380953 7.08712613784135  35.19791666666667 9.317295188556564  26.57142857142857 9.850455136540964  L 26.57142857142857 15.11703511053316  Z " stroke-width="0" stroke-dasharray="0" stroke="rgba(255, 255, 255, 0)" fill="none" transform="matrix(1 0 0 1 176 5 )" class="stroke" mask="url(#Clip1011)" />
  </g>
</svg>