<?xml version="1.0" encoding="utf-8"?>
<svg version="1.1" xmlns:xlink="http://www.w3.org/1999/xlink" width="25px" height="26px" xmlns="http://www.w3.org/2000/svg">
  <defs>
    <pattern id="BGPattern" patternUnits="userSpaceOnUse" alignment="0 0" imageRepeat="None" />
    <mask fill="white" id="Clip1019">
      <path d="M 15.457589285714285 18.763950892857142  C 16.05282738095238 19.09877232142857  16.429501488095237 18.922061011904763  16.587611607142858 18.233816964285715  L 18.638392857142858 8.565848214285715  C 18.722098214285715 8.15662202380952  18.673270089285715 7.86365327380952  18.491908482142858 7.686941964285715  C 18.310546875 7.510230654761904  18.07105654761905 7.477678571428573  17.7734375 7.589285714285715  L 5.719866071428571 12.234933035714285  C 5.450148809523809 12.337239583333332  5.266462053571429 12.453497023809524  5.168805803571429 12.583705357142858  C 5.071149553571429 12.71391369047619  5.059523809523809 12.837146577380953  5.133928571428571 12.953404017857142  C 5.208333333333334 13.069661458333332  5.357142857142857 13.160342261904761  5.580357142857143 13.22544642857143  L 8.663504464285714 14.188058035714285  L 15.8203125 9.681919642857142  C 16.015625 9.551711309523808  16.164434523809526 9.52380952380952  16.266741071428573 9.598214285714285  C 16.331845238095237 9.644717261904761  16.31324404761905 9.714471726190474  16.2109375 9.807477678571427  L 10.421316964285714 15.0390625  L 10.198102678571429 18.21986607142857  C 10.412016369047619 18.21986607142857  10.621279761904763 18.117559523809522  10.825892857142858 17.91294642857143  L 12.332589285714286 16.46205357142857  L 15.457589285714285 18.763950892857142  Z M 24.009486607142858 7.645089285714285  C 24.66982886904762 9.188988095238093  25 10.807291666666666  25 12.5  C 25 14.192708333333332  24.66982886904762 15.811011904761903  24.009486607142858 17.354910714285715  C 23.3491443452381 18.898809523809522  22.460937500000004 20.228794642857142  21.344866071428573 21.34486607142857  C 20.228794642857142 22.4609375  18.898809523809526 23.349144345238095  17.354910714285715 24.009486607142858  C 15.811011904761907 24.66982886904762  14.192708333333334 25  12.5 25  C 10.807291666666668 25  9.188988095238097 24.66982886904762  7.6450892857142865 24.009486607142858  C 6.101190476190476 23.349144345238095  4.771205357142857 22.4609375  3.655133928571429 21.34486607142857  C 2.5390625 20.228794642857142  1.6508556547619049 18.898809523809522  0.9905133928571428 17.354910714285715  C 0.33017113095238093 15.811011904761903  0 14.192708333333332  0 12.5  C 0 10.807291666666666  0.33017113095238093 9.188988095238093  0.9905133928571428 7.645089285714285  C 1.6508556547619049 6.101190476190474  2.5390625 4.771205357142858  3.655133928571429 3.6551339285714275  C 4.771205357142857 2.5390625  6.101190476190476 1.6508556547619042  7.6450892857142865 0.9905133928571425  C 9.188988095238097 0.3301711309523808  10.807291666666668 0  12.5 0  C 14.192708333333334 0  15.811011904761907 0.3301711309523808  17.354910714285715 0.9905133928571425  C 18.898809523809526 1.6508556547619042  20.228794642857142 2.5390625  21.344866071428573 3.6551339285714275  C 22.460937500000004 4.771205357142858  23.3491443452381 6.101190476190474  24.009486607142858 7.645089285714285  Z " fill-rule="evenodd" />
    </mask>
  </defs>
  <g transform="matrix(1 0 0 1 -51 -349 )">
    <path d="M 15.457589285714285 18.763950892857142  C 16.05282738095238 19.09877232142857  16.429501488095237 18.922061011904763  16.587611607142858 18.233816964285715  L 18.638392857142858 8.565848214285715  C 18.722098214285715 8.15662202380952  18.673270089285715 7.86365327380952  18.491908482142858 7.686941964285715  C 18.310546875 7.510230654761904  18.07105654761905 7.477678571428573  17.7734375 7.589285714285715  L 5.719866071428571 12.234933035714285  C 5.450148809523809 12.337239583333332  5.266462053571429 12.453497023809524  5.168805803571429 12.583705357142858  C 5.071149553571429 12.71391369047619  5.059523809523809 12.837146577380953  5.133928571428571 12.953404017857142  C 5.208333333333334 13.069661458333332  5.357142857142857 13.160342261904761  5.580357142857143 13.22544642857143  L 8.663504464285714 14.188058035714285  L 15.8203125 9.681919642857142  C 16.015625 9.551711309523808  16.164434523809526 9.52380952380952  16.266741071428573 9.598214285714285  C 16.331845238095237 9.644717261904761  16.31324404761905 9.714471726190474  16.2109375 9.807477678571427  L 10.421316964285714 15.0390625  L 10.198102678571429 18.21986607142857  C 10.412016369047619 18.21986607142857  10.621279761904763 18.117559523809522  10.825892857142858 17.91294642857143  L 12.332589285714286 16.46205357142857  L 15.457589285714285 18.763950892857142  Z M 24.009486607142858 7.645089285714285  C 24.66982886904762 9.188988095238093  25 10.807291666666666  25 12.5  C 25 14.192708333333332  24.66982886904762 15.811011904761903  24.009486607142858 17.354910714285715  C 23.3491443452381 18.898809523809522  22.460937500000004 20.228794642857142  21.344866071428573 21.34486607142857  C 20.228794642857142 22.4609375  18.898809523809526 23.349144345238095  17.354910714285715 24.009486607142858  C 15.811011904761907 24.66982886904762  14.192708333333334 25  12.5 25  C 10.807291666666668 25  9.188988095238097 24.66982886904762  7.6450892857142865 24.009486607142858  C 6.101190476190476 23.349144345238095  4.771205357142857 22.4609375  3.655133928571429 21.34486607142857  C 2.5390625 20.228794642857142  1.6508556547619049 18.898809523809522  0.9905133928571428 17.354910714285715  C 0.33017113095238093 15.811011904761903  0 14.192708333333332  0 12.5  C 0 10.807291666666666  0.33017113095238093 9.188988095238093  0.9905133928571428 7.645089285714285  C 1.6508556547619049 6.101190476190474  2.5390625 4.771205357142858  3.655133928571429 3.6551339285714275  C 4.771205357142857 2.5390625  6.101190476190476 1.6508556547619042  7.6450892857142865 0.9905133928571425  C 9.188988095238097 0.3301711309523808  10.807291666666668 0  12.5 0  C 14.192708333333334 0  15.811011904761907 0.3301711309523808  17.354910714285715 0.9905133928571425  C 18.898809523809526 1.6508556547619042  20.228794642857142 2.5390625  21.344866071428573 3.6551339285714275  C 22.460937500000004 4.771205357142858  23.3491443452381 6.101190476190474  24.009486607142858 7.645089285714285  Z " fill-rule="nonzero" fill="rgba(0, 0, 0, 1)" stroke="none" transform="matrix(1 0 0 1 51 349 )" class="fill" />
    <path d="M 15.457589285714285 18.763950892857142  C 16.05282738095238 19.09877232142857  16.429501488095237 18.922061011904763  16.587611607142858 18.233816964285715  L 18.638392857142858 8.565848214285715  C 18.722098214285715 8.15662202380952  18.673270089285715 7.86365327380952  18.491908482142858 7.686941964285715  C 18.310546875 7.510230654761904  18.07105654761905 7.477678571428573  17.7734375 7.589285714285715  L 5.719866071428571 12.234933035714285  C 5.450148809523809 12.337239583333332  5.266462053571429 12.453497023809524  5.168805803571429 12.583705357142858  C 5.071149553571429 12.71391369047619  5.059523809523809 12.837146577380953  5.133928571428571 12.953404017857142  C 5.208333333333334 13.069661458333332  5.357142857142857 13.160342261904761  5.580357142857143 13.22544642857143  L 8.663504464285714 14.188058035714285  L 15.8203125 9.681919642857142  C 16.015625 9.551711309523808  16.164434523809526 9.52380952380952  16.266741071428573 9.598214285714285  C 16.331845238095237 9.644717261904761  16.31324404761905 9.714471726190474  16.2109375 9.807477678571427  L 10.421316964285714 15.0390625  L 10.198102678571429 18.21986607142857  C 10.412016369047619 18.21986607142857  10.621279761904763 18.117559523809522  10.825892857142858 17.91294642857143  L 12.332589285714286 16.46205357142857  L 15.457589285714285 18.763950892857142  Z " stroke-width="0" stroke-dasharray="0" stroke="rgba(255, 255, 255, 0)" fill="none" transform="matrix(1 0 0 1 51 349 )" class="stroke" mask="url(#Clip1019)" />
    <path d="M 24.009486607142858 7.645089285714285  C 24.66982886904762 9.188988095238093  25 10.807291666666666  25 12.5  C 25 14.192708333333332  24.66982886904762 15.811011904761903  24.009486607142858 17.354910714285715  C 23.3491443452381 18.898809523809522  22.460937500000004 20.228794642857142  21.344866071428573 21.34486607142857  C 20.228794642857142 22.4609375  18.898809523809526 23.349144345238095  17.354910714285715 24.009486607142858  C 15.811011904761907 24.66982886904762  14.192708333333334 25  12.5 25  C 10.807291666666668 25  9.188988095238097 24.66982886904762  7.6450892857142865 24.009486607142858  C 6.101190476190476 23.349144345238095  4.771205357142857 22.4609375  3.655133928571429 21.34486607142857  C 2.5390625 20.228794642857142  1.6508556547619049 18.898809523809522  0.9905133928571428 17.354910714285715  C 0.33017113095238093 15.811011904761903  0 14.192708333333332  0 12.5  C 0 10.807291666666666  0.33017113095238093 9.188988095238093  0.9905133928571428 7.645089285714285  C 1.6508556547619049 6.101190476190474  2.5390625 4.771205357142858  3.655133928571429 3.6551339285714275  C 4.771205357142857 2.5390625  6.101190476190476 1.6508556547619042  7.6450892857142865 0.9905133928571425  C 9.188988095238097 0.3301711309523808  10.807291666666668 0  12.5 0  C 14.192708333333334 0  15.811011904761907 0.3301711309523808  17.354910714285715 0.9905133928571425  C 18.898809523809526 1.6508556547619042  20.228794642857142 2.5390625  21.344866071428573 3.6551339285714275  C 22.460937500000004 4.771205357142858  23.3491443452381 6.101190476190474  24.009486607142858 7.645089285714285  Z " stroke-width="0" stroke-dasharray="0" stroke="rgba(255, 255, 255, 0)" fill="none" transform="matrix(1 0 0 1 51 349 )" class="stroke" mask="url(#Clip1019)" />
  </g>
</svg>