<?xml version="1.0" encoding="utf-8"?>
<svg version="1.1" xmlns:xlink="http://www.w3.org/1999/xlink" width="21px" height="21px" xmlns="http://www.w3.org/2000/svg">
  <defs>
    <pattern id="BGPattern" patternUnits="userSpaceOnUse" alignment="0 0" imageRepeat="None" />
    <mask fill="white" id="Clip1022">
      <path d="M 3.9375 0  L 17.0625 0  C 18.147135416666668 0  19.074544270833336 0.38509114583333204  19.8447265625 1.1552734375000009  C 20.614908854166664 1.9254557291666647  21 2.8528645833333304  21 3.9375  L 21 17.0625  C 21 18.147135416666664  20.614908854166664 19.074544270833336  19.8447265625 19.8447265625  C 19.074544270833336 20.614908854166664  18.147135416666668 21  17.0625 21  L 14.4921875 21  L 14.4921875 12.865234374999998  L 17.212890625 12.865234374999998  L 17.623046875 9.693359375  L 14.4921875 9.693359375  L 14.4921875 7.669921875  C 14.4921875 7.15950520833333  14.59928385416667 6.776692708333331  14.8134765625 6.521484375  C 15.027669270833334 6.266276041666666  15.444661458333336 6.138671875000001  16.064453125 6.138671875000001  L 17.732421875 6.124999999999999  L 17.732421875 3.294921874999999  C 17.158203125 3.212890624999999  16.347005208333336 3.171874999999999  15.298828125 3.171874999999999  C 14.059244791666668 3.171874999999999  13.068033854166668 3.5364583333333313  12.3251953125 4.265625  C 11.582356770833334 4.994791666666666  11.2109375 6.024739583333332  11.2109375 7.355468749999999  L 11.2109375 9.693359375  L 8.4765625 9.693359375  L 8.4765625 12.865234374999998  L 11.2109375 12.865234374999998  L 11.2109375 21  L 3.9375 21  C 2.8528645833333335 21  1.925455729166667 20.614908854166664  1.1552734375 19.8447265625  C 0.38509114583333326 19.074544270833336  0 18.147135416666664  0 17.0625  L 0 3.9375  C 0 2.8528645833333304  0.38509114583333326 1.9254557291666647  1.1552734375 1.1552734375000009  C 1.925455729166667 0.38509114583333204  2.8528645833333335 0  3.9375 0  Z " fill-rule="evenodd" />
    </mask>
  </defs>
  <g transform="matrix(1 0 0 1 -307 -32 )">
    <path d="M 3.9375 0  L 17.0625 0  C 18.147135416666668 0  19.074544270833336 0.38509114583333204  19.8447265625 1.1552734375000009  C 20.614908854166664 1.9254557291666647  21 2.8528645833333304  21 3.9375  L 21 17.0625  C 21 18.147135416666664  20.614908854166664 19.074544270833336  19.8447265625 19.8447265625  C 19.074544270833336 20.614908854166664  18.147135416666668 21  17.0625 21  L 14.4921875 21  L 14.4921875 12.865234374999998  L 17.212890625 12.865234374999998  L 17.623046875 9.693359375  L 14.4921875 9.693359375  L 14.4921875 7.669921875  C 14.4921875 7.15950520833333  14.59928385416667 6.776692708333331  14.8134765625 6.521484375  C 15.027669270833334 6.266276041666666  15.444661458333336 6.138671875000001  16.064453125 6.138671875000001  L 17.732421875 6.124999999999999  L 17.732421875 3.294921874999999  C 17.158203125 3.212890624999999  16.347005208333336 3.171874999999999  15.298828125 3.171874999999999  C 14.059244791666668 3.171874999999999  13.068033854166668 3.5364583333333313  12.3251953125 4.265625  C 11.582356770833334 4.994791666666666  11.2109375 6.024739583333332  11.2109375 7.355468749999999  L 11.2109375 9.693359375  L 8.4765625 9.693359375  L 8.4765625 12.865234374999998  L 11.2109375 12.865234374999998  L 11.2109375 21  L 3.9375 21  C 2.8528645833333335 21  1.925455729166667 20.614908854166664  1.1552734375 19.8447265625  C 0.38509114583333326 19.074544270833336  0 18.147135416666664  0 17.0625  L 0 3.9375  C 0 2.8528645833333304  0.38509114583333326 1.9254557291666647  1.1552734375 1.1552734375000009  C 1.925455729166667 0.38509114583333204  2.8528645833333335 0  3.9375 0  Z " fill-rule="nonzero" fill="rgba(0, 0, 0, 1)" stroke="none" transform="matrix(1 0 0 1 307 32 )" class="fill" />
    <path d="M 3.9375 0  L 17.0625 0  C 18.147135416666668 0  19.074544270833336 0.38509114583333204  19.8447265625 1.1552734375000009  C 20.614908854166664 1.9254557291666647  21 2.8528645833333304  21 3.9375  L 21 17.0625  C 21 18.147135416666664  20.614908854166664 19.074544270833336  19.8447265625 19.8447265625  C 19.074544270833336 20.614908854166664  18.147135416666668 21  17.0625 21  L 14.4921875 21  L 14.4921875 12.865234374999998  L 17.212890625 12.865234374999998  L 17.623046875 9.693359375  L 14.4921875 9.693359375  L 14.4921875 7.669921875  C 14.4921875 7.15950520833333  14.59928385416667 6.776692708333331  14.8134765625 6.521484375  C 15.027669270833334 6.266276041666666  15.444661458333336 6.138671875000001  16.064453125 6.138671875000001  L 17.732421875 6.124999999999999  L 17.732421875 3.294921874999999  C 17.158203125 3.212890624999999  16.347005208333336 3.171874999999999  15.298828125 3.171874999999999  C 14.059244791666668 3.171874999999999  13.068033854166668 3.5364583333333313  12.3251953125 4.265625  C 11.582356770833334 4.994791666666666  11.2109375 6.024739583333332  11.2109375 7.355468749999999  L 11.2109375 9.693359375  L 8.4765625 9.693359375  L 8.4765625 12.865234374999998  L 11.2109375 12.865234374999998  L 11.2109375 21  L 3.9375 21  C 2.8528645833333335 21  1.925455729166667 20.614908854166664  1.1552734375 19.8447265625  C 0.38509114583333326 19.074544270833336  0 18.147135416666664  0 17.0625  L 0 3.9375  C 0 2.8528645833333304  0.38509114583333326 1.9254557291666647  1.1552734375 1.1552734375000009  C 1.925455729166667 0.38509114583333204  2.8528645833333335 0  3.9375 0  Z " stroke-width="0" stroke-dasharray="0" stroke="rgba(255, 255, 255, 0)" fill="none" transform="matrix(1 0 0 1 307 32 )" class="stroke" mask="url(#Clip1022)" />
  </g>
</svg>