<?xml version="1.0" encoding="utf-8"?>
<svg version="1.1" xmlns:xlink="http://www.w3.org/1999/xlink" width="21px" height="21px" xmlns="http://www.w3.org/2000/svg">
  <defs>
    <pattern id="BGPattern" patternUnits="userSpaceOnUse" alignment="0 0" imageRepeat="None" />
    <mask fill="white" id="Clip1021">
      <path d="M 12.984375 15.76171875  C 13.484375 16.04296875  13.80078125 15.89453125  13.93359375 15.31640625  L 15.65625 7.195312500000001  C 15.7265625 6.851562499999997  15.685546875 6.605468749999997  15.533203125 6.457031250000001  C 15.380859375 6.308593749999999  15.179687500000002 6.281250000000001  14.9296875 6.375000000000001  L 4.8046875 10.27734375  C 4.578125 10.363281249999998  4.423828125 10.4609375  4.341796875 10.5703125  C 4.259765625 10.679687499999998  4.25 10.783203125  4.3125 10.880859375  C 4.375 10.978515624999998  4.5 11.0546875  4.6875 11.109375000000002  L 7.277343749999999 11.91796875  L 13.2890625 8.1328125  C 13.453125 8.023437499999998  13.578125000000002 7.999999999999997  13.664062500000002 8.0625  C 13.71875 8.1015625  13.703125000000002 8.160156249999998  13.6171875 8.238281249999998  L 8.75390625 12.6328125  L 8.56640625 15.304687499999998  C 8.74609375 15.304687499999998  8.921875000000002 15.21875  9.09375 15.046875000000002  L 10.359375 13.828124999999998  L 12.984375 15.76171875  Z M 20.16796875 6.421874999999999  C 20.722656250000004 7.718749999999998  21 9.078125  21 10.5  C 21 11.921874999999998  20.722656250000004 13.28125  20.16796875 14.578125  C 19.613281250000004 15.875  18.867187500000004 16.9921875  17.9296875 17.9296875  C 16.9921875 18.8671875  15.875000000000002 19.61328125  14.578125 20.16796875  C 13.281250000000002 20.72265625  11.921875 21  10.5 21  C 9.078125 21  7.718750000000001 20.72265625  6.421875000000001 20.16796875  C 5.125 19.61328125  4.0078125 18.8671875  3.0703125 17.9296875  C 2.1328125 16.9921875  1.38671875 15.875  0.83203125 14.578125  C 0.27734374999999994 13.28125  0 11.921874999999998  0 10.5  C 0 9.078125  0.27734374999999994 7.718749999999998  0.83203125 6.421874999999999  C 1.38671875 5.124999999999998  2.1328125 4.0078125  3.0703125 3.070312499999999  C 4.0078125 2.1328125  5.125 1.3867187499999996  6.421875000000001 0.8320312499999997  C 7.718750000000001 0.2773437499999999  9.078125 0  10.5 0  C 11.921875 0  13.281250000000002 0.2773437499999999  14.578125 0.8320312499999997  C 15.875000000000002 1.3867187499999996  16.9921875 2.1328125  17.9296875 3.070312499999999  C 18.867187500000004 4.0078125  19.613281250000004 5.124999999999998  20.16796875 6.421874999999999  Z " fill-rule="evenodd" />
    </mask>
  </defs>
  <g transform="matrix(1 0 0 1 -197 -32 )">
    <path d="M 12.984375 15.76171875  C 13.484375 16.04296875  13.80078125 15.89453125  13.93359375 15.31640625  L 15.65625 7.195312500000001  C 15.7265625 6.851562499999997  15.685546875 6.605468749999997  15.533203125 6.457031250000001  C 15.380859375 6.308593749999999  15.179687500000002 6.281250000000001  14.9296875 6.375000000000001  L 4.8046875 10.27734375  C 4.578125 10.363281249999998  4.423828125 10.4609375  4.341796875 10.5703125  C 4.259765625 10.679687499999998  4.25 10.783203125  4.3125 10.880859375  C 4.375 10.978515624999998  4.5 11.0546875  4.6875 11.109375000000002  L 7.277343749999999 11.91796875  L 13.2890625 8.1328125  C 13.453125 8.023437499999998  13.578125000000002 7.999999999999997  13.664062500000002 8.0625  C 13.71875 8.1015625  13.703125000000002 8.160156249999998  13.6171875 8.238281249999998  L 8.75390625 12.6328125  L 8.56640625 15.304687499999998  C 8.74609375 15.304687499999998  8.921875000000002 15.21875  9.09375 15.046875000000002  L 10.359375 13.828124999999998  L 12.984375 15.76171875  Z M 20.16796875 6.421874999999999  C 20.722656250000004 7.718749999999998  21 9.078125  21 10.5  C 21 11.921874999999998  20.722656250000004 13.28125  20.16796875 14.578125  C 19.613281250000004 15.875  18.867187500000004 16.9921875  17.9296875 17.9296875  C 16.9921875 18.8671875  15.875000000000002 19.61328125  14.578125 20.16796875  C 13.281250000000002 20.72265625  11.921875 21  10.5 21  C 9.078125 21  7.718750000000001 20.72265625  6.421875000000001 20.16796875  C 5.125 19.61328125  4.0078125 18.8671875  3.0703125 17.9296875  C 2.1328125 16.9921875  1.38671875 15.875  0.83203125 14.578125  C 0.27734374999999994 13.28125  0 11.921874999999998  0 10.5  C 0 9.078125  0.27734374999999994 7.718749999999998  0.83203125 6.421874999999999  C 1.38671875 5.124999999999998  2.1328125 4.0078125  3.0703125 3.070312499999999  C 4.0078125 2.1328125  5.125 1.3867187499999996  6.421875000000001 0.8320312499999997  C 7.718750000000001 0.2773437499999999  9.078125 0  10.5 0  C 11.921875 0  13.281250000000002 0.2773437499999999  14.578125 0.8320312499999997  C 15.875000000000002 1.3867187499999996  16.9921875 2.1328125  17.9296875 3.070312499999999  C 18.867187500000004 4.0078125  19.613281250000004 5.124999999999998  20.16796875 6.421874999999999  Z " fill-rule="nonzero" fill="rgba(0, 0, 0, 1)" stroke="none" transform="matrix(1 0 0 1 197 32 )" class="fill" />
    <path d="M 12.984375 15.76171875  C 13.484375 16.04296875  13.80078125 15.89453125  13.93359375 15.31640625  L 15.65625 7.195312500000001  C 15.7265625 6.851562499999997  15.685546875 6.605468749999997  15.533203125 6.457031250000001  C 15.380859375 6.308593749999999  15.179687500000002 6.281250000000001  14.9296875 6.375000000000001  L 4.8046875 10.27734375  C 4.578125 10.363281249999998  4.423828125 10.4609375  4.341796875 10.5703125  C 4.259765625 10.679687499999998  4.25 10.783203125  4.3125 10.880859375  C 4.375 10.978515624999998  4.5 11.0546875  4.6875 11.109375000000002  L 7.277343749999999 11.91796875  L 13.2890625 8.1328125  C 13.453125 8.023437499999998  13.578125000000002 7.999999999999997  13.664062500000002 8.0625  C 13.71875 8.1015625  13.703125000000002 8.160156249999998  13.6171875 8.238281249999998  L 8.75390625 12.6328125  L 8.56640625 15.304687499999998  C 8.74609375 15.304687499999998  8.921875000000002 15.21875  9.09375 15.046875000000002  L 10.359375 13.828124999999998  L 12.984375 15.76171875  Z " stroke-width="0" stroke-dasharray="0" stroke="rgba(255, 255, 255, 0)" fill="none" transform="matrix(1 0 0 1 197 32 )" class="stroke" mask="url(#Clip1021)" />
    <path d="M 20.16796875 6.421874999999999  C 20.722656250000004 7.718749999999998  21 9.078125  21 10.5  C 21 11.921874999999998  20.722656250000004 13.28125  20.16796875 14.578125  C 19.613281250000004 15.875  18.867187500000004 16.9921875  17.9296875 17.9296875  C 16.9921875 18.8671875  15.875000000000002 19.61328125  14.578125 20.16796875  C 13.281250000000002 20.72265625  11.921875 21  10.5 21  C 9.078125 21  7.718750000000001 20.72265625  6.421875000000001 20.16796875  C 5.125 19.61328125  4.0078125 18.8671875  3.0703125 17.9296875  C 2.1328125 16.9921875  1.38671875 15.875  0.83203125 14.578125  C 0.27734374999999994 13.28125  0 11.921874999999998  0 10.5  C 0 9.078125  0.27734374999999994 7.718749999999998  0.83203125 6.421874999999999  C 1.38671875 5.124999999999998  2.1328125 4.0078125  3.0703125 3.070312499999999  C 4.0078125 2.1328125  5.125 1.3867187499999996  6.421875000000001 0.8320312499999997  C 7.718750000000001 0.2773437499999999  9.078125 0  10.5 0  C 11.921875 0  13.281250000000002 0.2773437499999999  14.578125 0.8320312499999997  C 15.875000000000002 1.3867187499999996  16.9921875 2.1328125  17.9296875 3.070312499999999  C 18.867187500000004 4.0078125  19.613281250000004 5.124999999999998  20.16796875 6.421874999999999  Z " stroke-width="0" stroke-dasharray="0" stroke="rgba(255, 255, 255, 0)" fill="none" transform="matrix(1 0 0 1 197 32 )" class="stroke" mask="url(#Clip1021)" />
  </g>
</svg>