<svg version="1.0" xmlns="http://www.w3.org/2000/svg"  width="50.000000pt" height="50.000000pt" viewBox="0 0 225.000000 225.000000"  preserveAspectRatio="xMidYMid meet">  <g transform="translate(0.000000,225.000000) scale(0.100000,-0.100000)" fill="#000000" stroke="none"> <path d="M529 1719 c-94 -26 -111 -35 -146 -73 -21 -23 -39 -46 -40 -51 -1 -6 -12 -37 -23 -70 -28 -78 -25 -191 5 -226 11 -12 14 -19 8 -15 -29 16 -10 -10 43 -60 44 -42 53 -55 40 -60 -9 -3 -14 -10 -11 -14 3 -5 1 -11 -5 -15 -13 -8 -13 -55 1 -55 5 0 7 -4 4 -10 -3 -5 10 -19 29 -31 l36 -21 0 -166 c0 -177 13 -248 44 -246 9 1 16 -2 16 -6 0 -15 49 3 70 25 20 21 21 32 21 201 -1 99 2 184 7 190 4 6 15 13 25 17 16 6 17 -5 17 -138 0 -93 4 -146 11 -151 6 -3 9 -17 6 -31 -3 -15 2 -28 12 -36 10 -7 20 -20 24 -31 5 -11 13 -16 23 -12 8 3 12 2 9 -3 -14 -24 79 -46 100 -24 8 8 19 12 24 9 5 -4 23 5 39 19 16 13 33 21 38 17 4 -4 3 0 -4 9 -9 13 -9 16 3 16 13 0 16 -4 15 -22 0 -3 13 -17 29 -30 19 -16 35 -23 47 -18 12 4 15 3 10 -5 -5 -8 4 -12 28 -12 20 0 36 5 36 11 0 7 9 9 22 6 25 -7 82 24 92 49 5 12 13 8 40 -20 42 -46 95 -51 116 -11 7 13 16 22 20 20 4 -3 8 1 7 8 -1 40 3 49 17 37 8 -6 13 -17 10 -25 -3 -7 6 -25 21 -39 34 -34 75 -34 112 0 l28 26 24 -28 c29 -34 77 -34 101 -1 14 21 32 200 19 191 -3 -2 5 29 17 68 13 40 24 78 24 85 0 7 5 13 11 13 6 0 9 9 6 20 -3 10 1 24 9 31 8 6 12 15 9 19 -3 4 2 26 10 49 9 27 10 41 3 41 -5 0 -7 7 -4 16 3 8 2 12 -4 9 -16 -10 -12 2 15 41 33 49 32 92 -7 166 -31 60 -31 61 -12 77 50 42 51 80 1 122 -20 18 -20 19 -2 13 20 -6 20 -6 0 7 -25 16 -67 18 -77 4 -5 -7 -8 -7 -8 1 0 7 -13 7 -45 0 -25 -6 -45 -15 -45 -20 0 -5 -9 0 -21 13 -14 15 -27 20 -38 15 -18 -8 -37 -9 -103 -2 -39 3 -47 1 -51 -14 -3 -10 -11 -18 -19 -17 -10 0 -10 2 0 6 6 2 12 8 12 12 0 4 -6 9 -12 10 -51 7 -74 7 -79 -2 -5 -6 -18 -6 -39 2 -62 21 -170 10 -170 -18 -1 -14 -3 -13 -15 3 -13 17 -28 19 -79 14 -8 -1 -12 -7 -9 -15 4 -9 0 -11 -13 -6 -13 5 -15 3 -9 -7 5 -8 -7 -2 -26 12 -19 14 -42 24 -52 23 -33 -6 -48 -15 -42 -25 3 -5 -1 -10 -9 -10 -9 0 -16 -5 -16 -11 0 -8 -4 -8 -14 1 -8 6 -12 18 -10 25 3 7 -8 23 -25 36 -33 24 -40 44 -18 52 9 4 9 6 0 6 -6 1 -15 -4 -18 -9 -4 -6 -16 -3 -31 9 -13 11 -48 22 -77 26 -28 4 -57 11 -62 16 -12 9 -40 8 -76 -2z m172 -45 c34 -17 42 -18 33 -1 -4 7 -3 9 2 4 5 -5 9 -12 9 -16 0 -4 17 -24 37 -45 47 -49 68 -94 75 -164 3 -31 11 -64 17 -72 9 -13 9 -13 -5 -2 -14 11 -17 8 -22 -16 -10 -48 -69 -125 -121 -157 -45 -27 -57 -30 -135 -30 -102 0 -150 21 -204 87 -131 162 -55 379 150 427 48 11 128 4 164 -15z m283 -156 c9 -29 24 -86 33 -125 10 -40 20 -73 23 -73 3 0 4 56 2 125 l-3 125 30 0 31 0 0 -190 0 -190 -34 0 c-31 0 -34 3 -45 43 -6 23 -22 78 -36 122 l-24 80 0 -126 -1 -126 -30 5 -30 4 0 189 0 189 34 0 c33 0 35 -2 50 -52z m316 22 c0 -29 -1 -30 -50 -30 l-50 0 0 -50 0 -50 40 0 c38 0 40 -2 40 -30 0 -28 -2 -30 -40 -30 l-40 0 0 -54 0 -53 50 5 50 5 0 -34 0 -34 -80 3 -80 4 0 189 0 189 80 0 80 0 0 -30z m109 -39 c6 -39 11 -85 12 -103 1 -31 1 -32 9 -7 4 14 11 60 15 102 l7 77 33 0 33 0 7 -95 c4 -52 10 -95 15 -95 4 0 11 43 15 95 l7 95 34 0 c31 0 34 -3 29 -22 -3 -13 -16 -97 -30 -187 -14 -91 -26 -166 -28 -167 -1 -1 -13 -4 -27 -6 -23 -3 -25 1 -32 52 -4 30 -11 75 -14 100 l-7 45 -7 -40 c-4 -22 -11 -66 -15 -97 -6 -56 -8 -58 -36 -58 -16 0 -29 3 -29 6 0 5 -32 200 -55 342 -6 30 -4 32 23 32 28 0 29 -2 41 -69z m382 59 c16 -9 49 -58 49 -73 0 -3 -13 -7 -29 -9 -24 -3 -32 0 -40 20 -16 35 -45 25 -49 -16 -3 -29 4 -42 51 -90 60 -64 73 -98 57 -148 -13 -40 -35 -54 -83 -54 -43 0 -74 25 -86 67 -8 28 -7 32 16 38 14 3 26 5 27 3 1 -2 7 -15 14 -30 12 -30 31 -35 50 -16 23 23 13 59 -25 97 -63 61 -83 92 -83 131 0 69 70 112 131 80z m-481 -80 c-13 -9 -13 -10 0 -10 13 0 13 -1 0 -10 -13 -8 -13 -10 1 -10 12 0 18 -15 23 -62 3 -35 9 -79 12 -98 4 -19 7 -46 8 -60 0 -14 8 -31 16 -37 13 -11 13 -15 -4 -28 -11 -8 -16 -15 -12 -15 4 0 0 -7 -8 -16 -9 -8 -16 -31 -16 -50 0 -19 -5 -34 -11 -34 -8 0 -8 -5 1 -15 9 -10 9 -15 1 -15 -6 0 -11 -8 -11 -18 0 -10 -3 -22 -7 -26 -4 -4 -6 -26 -4 -49 1 -23 -1 -38 -5 -34 -5 4 -9 43 -9 87 -1 56 -6 86 -19 104 -9 15 -14 31 -11 37 4 5 1 8 -6 7 -6 -2 -14 3 -16 10 -3 8 6 12 27 12 23 0 40 9 61 32 17 17 26 34 22 37 -4 3 -16 19 -25 36 -9 16 -22 31 -29 34 -7 2 -9 -1 -4 -8 5 -9 1 -9 -14 1 -28 17 -27 23 9 48 38 27 40 67 4 101 -14 13 -29 23 -32 21 -4 -2 -8 1 -10 6 -1 5 12 14 30 19 43 14 57 15 38 3z m334 -85 c-5 -11 -2 -13 10 -9 12 4 16 0 16 -16 0 -11 4 -19 9 -15 5 3 12 1 16 -5 3 -5 1 -10 -5 -10 -6 0 -8 -5 -4 -12 4 -7 3 -8 -5 -4 -6 4 -18 2 -26 -4 -24 -20 -36 -8 -21 22 9 17 11 29 4 36 -6 6 -7 15 -4 21 10 16 16 13 10 -4z m-778 -154 c-4 -30 -2 -44 11 -57 16 -16 16 -16 -2 -11 -38 11 -80 11 -102 -1 -12 -7 -30 -12 -40 -12 -15 0 -16 -2 -3 -11 10 -7 11 -9 2 -7 -22 6 -19 23 5 26 12 2 29 14 38 28 12 19 20 23 29 15 11 -9 12 -6 8 15 -3 19 -1 25 7 20 6 -4 11 -1 11 9 0 9 5 13 10 10 6 -3 10 -1 10 4 0 6 5 11 11 11 8 0 9 -13 5 -39z m784 -43 c0 -16 11 -23 33 -19 5 1 6 -3 2 -9 -3 -5 -1 -10 6 -10 7 0 4 -6 -7 -14 -17 -13 -20 -13 -28 5 -5 10 -15 19 -23 19 -7 0 -13 8 -13 18 0 15 -2 15 -11 2 -8 -12 -9 -11 -7 5 3 13 10 19 22 17 14 -3 16 0 7 17 -16 30 -12 40 4 11 8 -14 14 -33 15 -42z m-650 -34 c0 -8 -4 -13 -9 -10 -5 4 -12 -7 -16 -22 -3 -16 -12 -29 -20 -29 -12 0 -12 3 -2 16 6 8 8 12 2 9 -5 -3 -17 1 -25 10 -13 14 -13 15 0 10 9 -3 24 5 35 18 20 24 35 23 35 -2z m-340 -60 l0 -42 -40 5 -41 6 3 -216 3 -215 -37 -4 -38 -4 0 220 0 219 -40 -7 -40 -6 0 45 0 45 115 -1 115 -2 0 -43z m236 19 c45 -29 54 -68 54 -227 0 -111 -4 -155 -16 -186 -26 -65 -98 -89 -165 -54 -50 25 -59 63 -59 241 0 141 2 162 20 191 37 60 107 74 166 35z m278 12 c58 -28 66 -55 67 -227 1 -205 3 -193 -30 -230 -28 -31 -34 -33 -115 -38 l-86 -5 0 258 0 257 66 0 c38 0 79 -6 98 -15z m311 -17 c19 -107 75 -461 75 -471 0 -9 -12 -11 -39 -9 l-39 4 -7 56 -6 57 -39 0 -39 1 -7 -57 -6 -57 -40 -4 c-21 -2 -40 -3 -41 -1 -2 2 73 479 79 501 2 7 22 12 53 12 49 0 50 -1 56 -32z m165 -58 c14 -49 28 -86 31 -82 3 4 16 44 29 90 l23 82 43 0 43 0 -50 -142 c-47 -138 -49 -147 -49 -255 l0 -113 -40 0 -40 0 0 108 c0 101 -3 116 -44 237 -24 72 -47 138 -51 148 -6 15 -1 17 37 17 l44 0 24 -90z m-65 -157 c6 -23 13 -45 18 -49 10 -10 9 -36 -2 -30 -5 3 -8 -19 -6 -50 2 -58 -8 -62 -20 -6 -5 23 -3 32 7 32 10 0 9 3 -2 10 -9 5 -15 26 -16 53 -1 23 -5 53 -9 66 -5 17 -4 22 6 19 8 -2 19 -23 24 -45z"/> <path d="M608 1672 c-16 -2 -28 -7 -28 -11 0 -13 26 -32 33 -24 8 7 17 -16 20 -51 3 -36 21 -38 27 -1 4 23 11 30 30 32 14 1 30 3 35 5 13 4 16 -7 9 -27 -4 -8 -16 -15 -29 -15 -12 0 -27 -6 -33 -12 -25 -31 -12 -113 19 -123 23 -7 59 2 59 16 0 16 35 10 46 -9 6 -10 15 -32 18 -50 13 -55 26 -46 26 17 0 66 -21 122 -59 159 -13 13 -21 26 -17 29 8 8 -39 43 -57 43 -9 0 -18 4 -21 9 -7 11 -43 17 -78 13z m187 -138 c20 -31 19 -35 -7 -33 -51 5 -79 -1 -72 -13 6 -10 4 -10 -8 0 -17 13 -22 62 -6 62 5 0 6 -6 2 -12 -4 -7 1 -6 10 3 26 24 63 21 81 -7z"/> <path d="M475 1630 c-3 -5 -15 -10 -25 -10 -10 0 -22 -5 -26 -12 -5 -8 -2 -9 9 -5 11 4 22 -1 29 -13 7 -11 17 -20 23 -20 13 0 36 50 29 61 -7 12 -31 11 -39 -1z"/> <path d="M406 1574 c-11 -7 -22 -11 -26 -9 -9 5 -27 -49 -35 -106 -10 -75 0 -95 61 -124 35 -17 52 -30 48 -39 -5 -13 44 -56 64 -56 6 0 24 -13 40 -30 28 -28 55 -40 50 -22 -1 4 7 25 18 47 11 22 20 54 19 70 0 28 -3 30 -35 27 -19 -1 -41 0 -49 4 -28 12 -111 15 -111 4 0 -25 -40 -2 -53 30 -4 11 -6 11 -6 2 -1 -21 -21 -3 -21 20 0 15 5 19 20 15 16 -4 21 1 26 29 3 19 16 41 27 49 12 8 16 15 9 15 -7 0 -11 4 -7 10 3 5 13 6 23 3 16 -6 16 -5 -1 14 -9 11 -24 20 -31 20 -13 0 -28 -31 -30 -62 -1 -14 -46 -19 -46 -5 0 7 9 9 23 6 12 -3 16 -3 10 0 -7 3 -13 10 -13 15 0 6 5 7 10 4 6 -3 10 -2 10 4 0 5 -6 11 -12 14 -9 3 -6 11 9 26 12 12 29 18 37 15 9 -3 16 -2 16 4 0 17 -25 20 -44 6z m144 -273 c0 -5 8 -8 17 -7 26 4 43 -15 27 -31 -17 -17 -41 -16 -47 1 -4 9 -16 13 -31 12 -20 -3 -24 0 -16 9 5 6 7 15 3 18 -3 4 6 7 20 7 15 0 27 -4 27 -9z"/> <path d="M801 1056 c-8 -9 -11 -64 -9 -172 3 -157 3 -159 26 -162 47 -7 52 9 52 174 0 141 -2 154 -19 164 -26 13 -36 13 -50 -4z"/> <path d="M1082 893 l3 -178 35 4 c19 1 38 8 42 15 4 6 8 79 8 163 0 140 -2 153 -19 163 -11 5 -31 10 -46 10 l-25 0 2 -177z"/> <path d="M1416 948 c-3 -39 -9 -82 -12 -95 -5 -20 -3 -23 23 -23 l30 0 -8 48 c-4 26 -8 66 -8 89 -1 70 -18 57 -25 -19z"/> </g> </svg>