<?xml version="1.0" encoding="utf-8"?>
<svg version="1.1" xmlns:xlink="http://www.w3.org/1999/xlink" width="97px" height="48px" xmlns="http://www.w3.org/2000/svg">
  <defs>
    <pattern id="BGPattern" patternUnits="userSpaceOnUse" alignment="0 0" imageRepeat="None" />
    <mask fill="white" id="Clip1042">
      <path d="M 0 48  L 0 0  L 97 0  L 97 48  L 0 48  Z " fill-rule="evenodd" />
    </mask>
  </defs>
  <g transform="matrix(1 0 0 1 -21 -24 )">
    <path d="M 0 48  L 0 0  L 97 0  L 97 48  L 0 48  Z " fill-rule="nonzero" fill="rgba(242, 242, 242, 1)" stroke="none" transform="matrix(1 0 0 1 21 24 )" class="fill" />
    <path d="M 0 48  L 0 0  L 97 0  L 97 48  L 0 48  Z " stroke-width="2" stroke-dasharray="0" stroke="rgba(121, 121, 121, 1)" fill="none" transform="matrix(1 0 0 1 21 24 )" class="stroke" mask="url(#Clip1042)" />
    <path d="M 96.09439635084375 0.44813376453092796  L 0.9056036491562502 47.55186623546907  M 0.9056036491562502 0.44813376453092796  L 96.09439635084375 47.55186623546907  " stroke-width="1" stroke-dasharray="0" stroke="rgba(121, 121, 121, 1)" fill="none" transform="matrix(1 0 0 1 21 24 )" class="stroke" />
  </g>
</svg>