<?xml version="1.0" encoding="utf-8"?>
<svg version="1.1" xmlns:xlink="http://www.w3.org/1999/xlink" width="176px" height="94px" xmlns="http://www.w3.org/2000/svg">
  <defs>
    <mask fill="white" id="Clip1006">
      <path d="M 10 94  C 4.45 94  0 89.55  0 84  L 0 10  C 0 4.45  4.45 0  10 0  L 166 0  C 171.55 0  176 4.45  176 10  L 176 84  C 176 89.55  171.55 94  166 94  " fill-rule="evenodd" />
    </mask>
  </defs>
  <g>
    <path d="M 0 0  L 176 0  L 176 94  L 0 94  L 0 0  " fill-rule="nonzero" fill="rgba(204, 204, 204, 1)" stroke="none" class="fill" mask="url(#Clip1006)" />
    <path d="M 7 7  L 169 7  L 169 87  L 7 87  L 7 7  " fill-rule="nonzero" fill="rgba(255, 255, 255, 1)" stroke="none" class="fill" mask="url(#Clip1006)" />
    <path d="M 98.57000000000001 28.2  C 94.62200000000001 28.2  91.52000000000001 25.098  91.52000000000001 21.15  C 91.52000000000001 17.201999999999998  94.62200000000001 14.1  98.57000000000001 14.1  C 102.518 14.1  105.62 17.201999999999998  105.62 21.15  C 105.62 25.098  102.518 28.2  98.57000000000001 28.2  " fill-rule="nonzero" fill="rgba(204, 204, 204, 1)" stroke="none" class="fill" mask="url(#Clip1006)" />
    <path d="M 10 85  L 10 43.75  L 49.25 25  L 104.2 60.96590909090909  L 135.60000000000002 36.25  L 167 60.96590909090909  L 167 85  L 10 85  " fill-rule="nonzero" fill="rgba(22, 155, 213, 1)" stroke="none" class="fill" mask="url(#Clip1006)" />
  </g>
</svg>