<?xml version="1.0" encoding="utf-8"?>
<svg version="1.1" xmlns:xlink="http://www.w3.org/1999/xlink" width="78px" height="49px" xmlns="http://www.w3.org/2000/svg">
  <defs>
    <pattern id="BGPattern" patternUnits="userSpaceOnUse" alignment="0 0" imageRepeat="None" />
    <mask fill="white" id="Clip1005">
      <path d="M 72 4.078023407022108  L 72 16.312093628088427  C 73.96651785714286 16.312093628088427  75.27957589285715 16.71033810143043  76.36774553571428 17.506827048114435  C 77.45591517857143 18.30331599479844  78 19.264412657130475  78 20.390117035110535  C 78 21.515821413090592  77.45591517857143 22.476918075422624  76.36774553571428 23.27340702210663  C 75.27957589285715 24.069895968790636  73.96651785714286 24.468140442132636  72 24.468140442132636  L 72 36.702210663198954  C 72.42857142857143 37.80667533593411  71.87723214285715 38.762462071954914  70.77455357142857 39.56957087126138  C 69.671875 40.37667967056783  68.36607142857143 40.78023407022106  66.85714285714285 40.78023407022106  C 54.75669642857143 33.4100563502384  42.97544642857143 29.37451235370611  31.513392857142858 28.67360208062419  C 29.830357142857146 29.077156480277413  28.510044642857142 29.778066753359337  27.552455357142858 30.77633289986996  C 26.594866071428573 31.77459904638058  26.145089285714292 32.84189423493714  26.203125 33.97821846553966  C 26.261160714285715 35.11454269614217  26.841517857142858 36.096879063719115  27.944196428571427 36.92522756827048  C 27.363839285714292 37.6261378413524  27.030133928571427 38.3217381881231  26.943080357142858 39.012028608582575  C 26.856026785714285 39.702319029042044  26.943080357142858 40.318270481144346  27.204241071428573 40.859882964889465  C 27.465401785714285 41.40149544863459  27.95145089285715 41.98558734286953  28.662388392857142 42.61215864759428  C 29.373325892857146 43.238729952319034  30.069754464285715 43.7697225834417  30.751674107142858 44.205136540962286  C 31.43359375 44.64055049848288  32.32589285714286 45.17685305591677  33.42857142857142 45.814044213263976  C 32.58705357142858 47.04594711746858  30.969308035714285 47.9273948851322  28.575334821428573 48.45838751625488  C 26.181361607142858 48.98938014737755  23.736607142857146 49.11150845253576  21.241071428571427 48.82477243172952  C 18.745535714285715 48.538036410923276  16.830357142857146 47.94863459037711  15.495535714285714 47.056566970091026  C 15.292410714285717 46.56805374945817  14.864397321428571 45.6388166449935  14.211495535714286 44.26885565669701  C 13.55859375 42.89889466840052  13.094308035714288 41.89531859557867  12.818638392857142 41.25812743823147  C 12.542968750000002 40.620936280884266  12.209263392857142 39.67576939748591  11.817522321428571 38.42262678803641  C 11.42578125 37.169484178586906  11.208147321428571 36.096879063719115  11.164620535714286 35.20481144343303  C 11.121093750000002 34.31274382314694  11.171875000000002 33.26668833983528  11.316964285714286 32.06664499349805  C 11.462053571428575 30.866601647160817  11.781250000000002 29.69310793237971  12.274553571428571 28.546163849154745  L 6.964285714285714 28.546163849154745  C 5.049107142857143 28.546163849154745  3.4095982142857144 28.047030775899433  2.045758928571429 27.048764629388817  C 0.6819196428571429 26.050498482878194  0 24.850455136540965  0 23.44863459037711  L 0 17.331599479843952  C 0 15.929778933680105  0.6819196428571429 14.729735587342866  2.045758928571429 13.731469440832248  C 3.4095982142857144 12.733203294321624  5.049107142857143 12.234070221066318  6.964285714285714 13  L 27.857142857142858 13  C 40.479910714285715 12.234070221066318  53.47991071428572 8.156046814044212  66.85714285714285 0  C 68.36607142857143 0  69.671875 0.40355439965322426  70.77455357142857 1.210663198959689  C 71.87723214285715 2.0177719982661433  72.42857142857143 2.973558734286949  72 4.078023407022108  Z M 33.42857142857142 24.691157347204165  C 44.36830357142857 25.583224967490246  55.511160714285715 29.204594711746854  66 35.555266579973996  L 66 5.161248374512353  C 55.42410714285715 11.575639358474206  44.28125 15.218248807975723  33.42857142857142 16.089076723016905  L 33.42857142857142 24.691157347204165  Z " fill-rule="evenodd" />
    </mask>
  </defs>
  <g transform="matrix(1 0 0 1 -64 -11 )">
    <path d="M 72 4.078023407022108  L 72 16.312093628088427  C 73.96651785714286 16.312093628088427  75.27957589285715 16.71033810143043  76.36774553571428 17.506827048114435  C 77.45591517857143 18.30331599479844  78 19.264412657130475  78 20.390117035110535  C 78 21.515821413090592  77.45591517857143 22.476918075422624  76.36774553571428 23.27340702210663  C 75.27957589285715 24.069895968790636  73.96651785714286 24.468140442132636  72 24.468140442132636  L 72 36.702210663198954  C 72.42857142857143 37.80667533593411  71.87723214285715 38.762462071954914  70.77455357142857 39.56957087126138  C 69.671875 40.37667967056783  68.36607142857143 40.78023407022106  66.85714285714285 40.78023407022106  C 54.75669642857143 33.4100563502384  42.97544642857143 29.37451235370611  31.513392857142858 28.67360208062419  C 29.830357142857146 29.077156480277413  28.510044642857142 29.778066753359337  27.552455357142858 30.77633289986996  C 26.594866071428573 31.77459904638058  26.145089285714292 32.84189423493714  26.203125 33.97821846553966  C 26.261160714285715 35.11454269614217  26.841517857142858 36.096879063719115  27.944196428571427 36.92522756827048  C 27.363839285714292 37.6261378413524  27.030133928571427 38.3217381881231  26.943080357142858 39.012028608582575  C 26.856026785714285 39.702319029042044  26.943080357142858 40.318270481144346  27.204241071428573 40.859882964889465  C 27.465401785714285 41.40149544863459  27.95145089285715 41.98558734286953  28.662388392857142 42.61215864759428  C 29.373325892857146 43.238729952319034  30.069754464285715 43.7697225834417  30.751674107142858 44.205136540962286  C 31.43359375 44.64055049848288  32.32589285714286 45.17685305591677  33.42857142857142 45.814044213263976  C 32.58705357142858 47.04594711746858  30.969308035714285 47.9273948851322  28.575334821428573 48.45838751625488  C 26.181361607142858 48.98938014737755  23.736607142857146 49.11150845253576  21.241071428571427 48.82477243172952  C 18.745535714285715 48.538036410923276  16.830357142857146 47.94863459037711  15.495535714285714 47.056566970091026  C 15.292410714285717 46.56805374945817  14.864397321428571 45.6388166449935  14.211495535714286 44.26885565669701  C 13.55859375 42.89889466840052  13.094308035714288 41.89531859557867  12.818638392857142 41.25812743823147  C 12.542968750000002 40.620936280884266  12.209263392857142 39.67576939748591  11.817522321428571 38.42262678803641  C 11.42578125 37.169484178586906  11.208147321428571 36.096879063719115  11.164620535714286 35.20481144343303  C 11.121093750000002 34.31274382314694  11.171875000000002 33.26668833983528  11.316964285714286 32.06664499349805  C 11.462053571428575 30.866601647160817  11.781250000000002 29.69310793237971  12.274553571428571 28.546163849154745  L 6.964285714285714 28.546163849154745  C 5.049107142857143 28.546163849154745  3.4095982142857144 28.047030775899433  2.045758928571429 27.048764629388817  C 0.6819196428571429 26.050498482878194  0 24.850455136540965  0 23.44863459037711  L 0 17.331599479843952  C 0 15.929778933680105  0.6819196428571429 14.729735587342866  2.045758928571429 13.731469440832248  C 3.4095982142857144 12.733203294321624  5.049107142857143 12.234070221066318  6.964285714285714 13  L 27.857142857142858 13  C 40.479910714285715 12.234070221066318  53.47991071428572 8.156046814044212  66.85714285714285 0  C 68.36607142857143 0  69.671875 0.40355439965322426  70.77455357142857 1.210663198959689  C 71.87723214285715 2.0177719982661433  72.42857142857143 2.973558734286949  72 4.078023407022108  Z M 33.42857142857142 24.691157347204165  C 44.36830357142857 25.583224967490246  55.511160714285715 29.204594711746854  66 35.555266579973996  L 66 5.161248374512353  C 55.42410714285715 11.575639358474206  44.28125 15.218248807975723  33.42857142857142 16.089076723016905  L 33.42857142857142 24.691157347204165  Z " fill-rule="nonzero" fill="rgba(217, 0, 27, 1)" stroke="none" transform="matrix(1 0 0 1 64 11 )" class="fill" />
    <path d="M 72 4.078023407022108  L 72 16.312093628088427  C 73.96651785714286 16.312093628088427  75.27957589285715 16.71033810143043  76.36774553571428 17.506827048114435  C 77.45591517857143 18.30331599479844  78 19.264412657130475  78 20.390117035110535  C 78 21.515821413090592  77.45591517857143 22.476918075422624  76.36774553571428 23.27340702210663  C 75.27957589285715 24.069895968790636  73.96651785714286 24.468140442132636  72 24.468140442132636  L 72 36.702210663198954  C 72.42857142857143 37.80667533593411  71.87723214285715 38.762462071954914  70.77455357142857 39.56957087126138  C 69.671875 40.37667967056783  68.36607142857143 40.78023407022106  66.85714285714285 40.78023407022106  C 54.75669642857143 33.4100563502384  42.97544642857143 29.37451235370611  31.513392857142858 28.67360208062419  C 29.830357142857146 29.077156480277413  28.510044642857142 29.778066753359337  27.552455357142858 30.77633289986996  C 26.594866071428573 31.77459904638058  26.145089285714292 32.84189423493714  26.203125 33.97821846553966  C 26.261160714285715 35.11454269614217  26.841517857142858 36.096879063719115  27.944196428571427 36.92522756827048  C 27.363839285714292 37.6261378413524  27.030133928571427 38.3217381881231  26.943080357142858 39.012028608582575  C 26.856026785714285 39.702319029042044  26.943080357142858 40.318270481144346  27.204241071428573 40.859882964889465  C 27.465401785714285 41.40149544863459  27.95145089285715 41.98558734286953  28.662388392857142 42.61215864759428  C 29.373325892857146 43.238729952319034  30.069754464285715 43.7697225834417  30.751674107142858 44.205136540962286  C 31.43359375 44.64055049848288  32.32589285714286 45.17685305591677  33.42857142857142 45.814044213263976  C 32.58705357142858 47.04594711746858  30.969308035714285 47.9273948851322  28.575334821428573 48.45838751625488  C 26.181361607142858 48.98938014737755  23.736607142857146 49.11150845253576  21.241071428571427 48.82477243172952  C 18.745535714285715 48.538036410923276  16.830357142857146 47.94863459037711  15.495535714285714 47.056566970091026  C 15.292410714285717 46.56805374945817  14.864397321428571 45.6388166449935  14.211495535714286 44.26885565669701  C 13.55859375 42.89889466840052  13.094308035714288 41.89531859557867  12.818638392857142 41.25812743823147  C 12.542968750000002 40.620936280884266  12.209263392857142 39.67576939748591  11.817522321428571 38.42262678803641  C 11.42578125 37.169484178586906  11.208147321428571 36.096879063719115  11.164620535714286 35.20481144343303  C 11.121093750000002 34.31274382314694  11.171875000000002 33.26668833983528  11.316964285714286 32.06664499349805  C 11.462053571428575 30.866601647160817  11.781250000000002 29.69310793237971  12.274553571428571 28.546163849154745  L 6.964285714285714 28.546163849154745  C 5.049107142857143 28.546163849154745  3.4095982142857144 28.047030775899433  2.045758928571429 27.048764629388817  C 0.6819196428571429 26.050498482878194  0 24.850455136540965  0 23.44863459037711  L 0 17.331599479843952  C 0 15.929778933680105  0.6819196428571429 14.729735587342866  2.045758928571429 13.731469440832248  C 3.4095982142857144 12.733203294321624  5.049107142857143 12.234070221066318  6.964285714285714 13  L 27.857142857142858 13  C 40.479910714285715 12.234070221066318  53.47991071428572 8.156046814044212  66.85714285714285 0  C 68.36607142857143 0  69.671875 0.40355439965322426  70.77455357142857 1.210663198959689  C 71.87723214285715 2.0177719982661433  72.42857142857143 2.973558734286949  72 4.078023407022108  Z " stroke-width="0" stroke-dasharray="0" stroke="rgba(255, 255, 255, 0)" fill="none" transform="matrix(1 0 0 1 64 11 )" class="stroke" mask="url(#Clip1005)" />
    <path d="M 33.42857142857142 24.691157347204165  C 44.36830357142857 25.583224967490246  55.511160714285715 29.204594711746854  66 35.555266579973996  L 66 5.161248374512353  C 55.42410714285715 11.575639358474206  44.28125 15.218248807975723  33.42857142857142 16.089076723016905  L 33.42857142857142 24.691157347204165  Z " stroke-width="0" stroke-dasharray="0" stroke="rgba(255, 255, 255, 0)" fill="none" transform="matrix(1 0 0 1 64 11 )" class="stroke" mask="url(#Clip1005)" />
  </g>
</svg>