<?xml version="1.0" encoding="utf-8"?>
<svg version="1.1" xmlns:xlink="http://www.w3.org/1999/xlink" width="40px" height="40px" xmlns="http://www.w3.org/2000/svg">
  <defs>
    <pattern id="BGPattern" patternUnits="userSpaceOnUse" alignment="0 0" imageRepeat="None" />
    <mask fill="white" id="Clip1007">
      <path d="M 24.732142857142854 30.022321428571427  C 25.68452380952381 30.55803571428571  26.28720238095238 30.27529761904762  26.540178571428573 29.174107142857146  L 29.821428571428573 13.705357142857144  C 29.955357142857146 13.050595238095234  29.877232142857146 12.581845238095234  29.587053571428573 12.299107142857144  C 29.296875 12.016369047619047  28.913690476190478 11.964285714285715  28.4375 12.142857142857144  L 9.151785714285714 19.575892857142854  C 8.720238095238095 19.73958333333333  8.426339285714286 19.925595238095237  8.270089285714286 20.133928571428573  C 8.113839285714286 20.3422619047619  8.095238095238095 20.539434523809526  8.214285714285714 20.725446428571427  C 8.333333333333334 20.91145833333333  8.571428571428571 21.05654761904762  8.928571428571429 21.16071428571429  L 13.861607142857142 22.700892857142854  L 25.3125 15.491071428571427  C 25.625 15.282738095238093  25.86309523809524 15.238095238095234  26.026785714285715 15.357142857142856  C 26.13095238095238 15.431547619047619  26.101190476190478 15.54315476190476  25.9375 15.691964285714285  L 16.674107142857142 24.0625  L 16.316964285714285 29.15178571428571  C 16.65922619047619 29.15178571428571  16.99404761904762 28.988095238095237  17.321428571428573 28.66071428571429  L 19.732142857142858 26.33928571428571  L 24.732142857142854 30.022321428571427  Z M 38.41517857142857 12.232142857142856  C 39.4717261904762 14.702380952380949  40 17.291666666666664  40 20  C 40 22.70833333333333  39.4717261904762 25.297619047619047  38.41517857142857 27.767857142857146  C 37.358630952380956 30.238095238095237  35.93750000000001 32.36607142857143  34.151785714285715 34.15178571428571  C 32.36607142857143 35.9375  30.23809523809524 37.358630952380956  27.767857142857146 38.41517857142857  C 25.29761904761905 39.47172619047619  22.708333333333336 40  20 40  C 17.291666666666668 40  14.702380952380953 39.47172619047619  12.232142857142858 38.41517857142857  C 9.761904761904763 37.358630952380956  7.633928571428571 35.9375  5.8482142857142865 34.15178571428571  C 4.0625 32.36607142857143  2.6413690476190474 30.238095238095237  1.5848214285714284 27.767857142857146  C 0.5282738095238094 25.297619047619047  0 22.70833333333333  0 20  C 0 17.291666666666664  0.5282738095238094 14.702380952380949  1.5848214285714284 12.232142857142856  C 2.6413690476190474 9.76190476190476  4.0625 7.633928571428572  5.8482142857142865 5.848214285714284  C 7.633928571428571 4.0625  9.761904761904763 2.6413690476190466  12.232142857142858 1.584821428571428  C 14.702380952380953 0.5282738095238093  17.291666666666668 0  20 0  C 22.708333333333336 0  25.29761904761905 0.5282738095238093  27.767857142857146 1.584821428571428  C 30.23809523809524 2.6413690476190466  32.36607142857143 4.0625  34.151785714285715 5.848214285714284  C 35.93750000000001 7.633928571428572  37.358630952380956 9.76190476190476  38.41517857142857 12.232142857142856  Z " fill-rule="evenodd" />
    </mask>
  </defs>
  <g transform="matrix(1 0 0 1 -201 -841 )">
    <path d="M 24.732142857142854 30.022321428571427  C 25.68452380952381 30.55803571428571  26.28720238095238 30.27529761904762  26.540178571428573 29.174107142857146  L 29.821428571428573 13.705357142857144  C 29.955357142857146 13.050595238095234  29.877232142857146 12.581845238095234  29.587053571428573 12.299107142857144  C 29.296875 12.016369047619047  28.913690476190478 11.964285714285715  28.4375 12.142857142857144  L 9.151785714285714 19.575892857142854  C 8.720238095238095 19.73958333333333  8.426339285714286 19.925595238095237  8.270089285714286 20.133928571428573  C 8.113839285714286 20.3422619047619  8.095238095238095 20.539434523809526  8.214285714285714 20.725446428571427  C 8.333333333333334 20.91145833333333  8.571428571428571 21.05654761904762  8.928571428571429 21.16071428571429  L 13.861607142857142 22.700892857142854  L 25.3125 15.491071428571427  C 25.625 15.282738095238093  25.86309523809524 15.238095238095234  26.026785714285715 15.357142857142856  C 26.13095238095238 15.431547619047619  26.101190476190478 15.54315476190476  25.9375 15.691964285714285  L 16.674107142857142 24.0625  L 16.316964285714285 29.15178571428571  C 16.65922619047619 29.15178571428571  16.99404761904762 28.988095238095237  17.321428571428573 28.66071428571429  L 19.732142857142858 26.33928571428571  L 24.732142857142854 30.022321428571427  Z M 38.41517857142857 12.232142857142856  C 39.4717261904762 14.702380952380949  40 17.291666666666664  40 20  C 40 22.70833333333333  39.4717261904762 25.297619047619047  38.41517857142857 27.767857142857146  C 37.358630952380956 30.238095238095237  35.93750000000001 32.36607142857143  34.151785714285715 34.15178571428571  C 32.36607142857143 35.9375  30.23809523809524 37.358630952380956  27.767857142857146 38.41517857142857  C 25.29761904761905 39.47172619047619  22.708333333333336 40  20 40  C 17.291666666666668 40  14.702380952380953 39.47172619047619  12.232142857142858 38.41517857142857  C 9.761904761904763 37.358630952380956  7.633928571428571 35.9375  5.8482142857142865 34.15178571428571  C 4.0625 32.36607142857143  2.6413690476190474 30.238095238095237  1.5848214285714284 27.767857142857146  C 0.5282738095238094 25.297619047619047  0 22.70833333333333  0 20  C 0 17.291666666666664  0.5282738095238094 14.702380952380949  1.5848214285714284 12.232142857142856  C 2.6413690476190474 9.76190476190476  4.0625 7.633928571428572  5.8482142857142865 5.848214285714284  C 7.633928571428571 4.0625  9.761904761904763 2.6413690476190466  12.232142857142858 1.584821428571428  C 14.702380952380953 0.5282738095238093  17.291666666666668 0  20 0  C 22.708333333333336 0  25.29761904761905 0.5282738095238093  27.767857142857146 1.584821428571428  C 30.23809523809524 2.6413690476190466  32.36607142857143 4.0625  34.151785714285715 5.848214285714284  C 35.93750000000001 7.633928571428572  37.358630952380956 9.76190476190476  38.41517857142857 12.232142857142856  Z " fill-rule="nonzero" fill="rgba(0, 0, 0, 1)" stroke="none" transform="matrix(1 0 0 1 201 841 )" class="fill" />
    <path d="M 24.732142857142854 30.022321428571427  C 25.68452380952381 30.55803571428571  26.28720238095238 30.27529761904762  26.540178571428573 29.174107142857146  L 29.821428571428573 13.705357142857144  C 29.955357142857146 13.050595238095234  29.877232142857146 12.581845238095234  29.587053571428573 12.299107142857144  C 29.296875 12.016369047619047  28.913690476190478 11.964285714285715  28.4375 12.142857142857144  L 9.151785714285714 19.575892857142854  C 8.720238095238095 19.73958333333333  8.426339285714286 19.925595238095237  8.270089285714286 20.133928571428573  C 8.113839285714286 20.3422619047619  8.095238095238095 20.539434523809526  8.214285714285714 20.725446428571427  C 8.333333333333334 20.91145833333333  8.571428571428571 21.05654761904762  8.928571428571429 21.16071428571429  L 13.861607142857142 22.700892857142854  L 25.3125 15.491071428571427  C 25.625 15.282738095238093  25.86309523809524 15.238095238095234  26.026785714285715 15.357142857142856  C 26.13095238095238 15.431547619047619  26.101190476190478 15.54315476190476  25.9375 15.691964285714285  L 16.674107142857142 24.0625  L 16.316964285714285 29.15178571428571  C 16.65922619047619 29.15178571428571  16.99404761904762 28.988095238095237  17.321428571428573 28.66071428571429  L 19.732142857142858 26.33928571428571  L 24.732142857142854 30.022321428571427  Z " stroke-width="0" stroke-dasharray="0" stroke="rgba(255, 255, 255, 0)" fill="none" transform="matrix(1 0 0 1 201 841 )" class="stroke" mask="url(#Clip1007)" />
    <path d="M 38.41517857142857 12.232142857142856  C 39.4717261904762 14.702380952380949  40 17.291666666666664  40 20  C 40 22.70833333333333  39.4717261904762 25.297619047619047  38.41517857142857 27.767857142857146  C 37.358630952380956 30.238095238095237  35.93750000000001 32.36607142857143  34.151785714285715 34.15178571428571  C 32.36607142857143 35.9375  30.23809523809524 37.358630952380956  27.767857142857146 38.41517857142857  C 25.29761904761905 39.47172619047619  22.708333333333336 40  20 40  C 17.291666666666668 40  14.702380952380953 39.47172619047619  12.232142857142858 38.41517857142857  C 9.761904761904763 37.358630952380956  7.633928571428571 35.9375  5.8482142857142865 34.15178571428571  C 4.0625 32.36607142857143  2.6413690476190474 30.238095238095237  1.5848214285714284 27.767857142857146  C 0.5282738095238094 25.297619047619047  0 22.70833333333333  0 20  C 0 17.291666666666664  0.5282738095238094 14.702380952380949  1.5848214285714284 12.232142857142856  C 2.6413690476190474 9.76190476190476  4.0625 7.633928571428572  5.8482142857142865 5.848214285714284  C 7.633928571428571 4.0625  9.761904761904763 2.6413690476190466  12.232142857142858 1.584821428571428  C 14.702380952380953 0.5282738095238093  17.291666666666668 0  20 0  C 22.708333333333336 0  25.29761904761905 0.5282738095238093  27.767857142857146 1.584821428571428  C 30.23809523809524 2.6413690476190466  32.36607142857143 4.0625  34.151785714285715 5.848214285714284  C 35.93750000000001 7.633928571428572  37.358630952380956 9.76190476190476  38.41517857142857 12.232142857142856  Z " stroke-width="0" stroke-dasharray="0" stroke="rgba(255, 255, 255, 0)" fill="none" transform="matrix(1 0 0 1 201 841 )" class="stroke" mask="url(#Clip1007)" />
  </g>
</svg>