<?xml version="1.0" encoding="utf-8"?>
<svg version="1.1" xmlns:xlink="http://www.w3.org/1999/xlink" width="40px" height="40px" xmlns="http://www.w3.org/2000/svg">
  <defs>
    <pattern id="BGPattern" patternUnits="userSpaceOnUse" alignment="0 0" imageRepeat="None" />
    <mask fill="white" id="Clip1009">
      <path d="M 7.5 0  L 32.5 0  C 34.56597222222223 0  36.33246527777778 0.733506944444442  37.799479166666664 2.200520833333335  C 39.26649305555556 3.6675347222222188  40 5.434027777777772  40 7.5  L 40 32.5  C 40 34.56597222222222  39.26649305555556 36.33246527777778  37.799479166666664 37.799479166666664  C 36.33246527777778 39.26649305555556  34.56597222222223 40  32.5 40  L 27 40  L 27 24.50520833333333  L 32.786458333333336 24.50520833333333  L 33.567708333333336 18.463541666666664  L 27.604166666666664 18.463541666666664  L 27.604166666666664 14.609375  C 27.604166666666664 13.637152777777771  27.80815972222223 12.907986111111107  28.216145833333336 12.421875  C 28.624131944444446 11.93576388888889  29.418402777777782 11.692708333333336  30.598958333333336 11.692708333333336  L 33.776041666666664 11.666666666666664  L 33.776041666666664 6.276041666666665  C 32.682291666666664 6.119791666666665  31.137152777777782 6.041666666666665  29.140625 6.041666666666665  C 26.779513888888893 6.041666666666665  24.891493055555557 6.736111111111107  23.4765625 8.125  C 22.061631944444446 9.51388888888889  21.354166666666664 11.475694444444443  21.354166666666664 14.010416666666664  L 21.354166666666664 18.463541666666664  L 16.145833333333332 18.463541666666664  L 16.145833333333332 24.50520833333333  L 21 24.50520833333333  L 21 40  L 7.5 40  C 5.434027777777778 40  3.6675347222222228 39.26649305555556  2.2005208333333335 37.799479166666664  C 0.7335069444444443 36.33246527777778  0 34.56597222222222  0 32.5  L 0 7.5  C 0 5.434027777777772  0.7335069444444443 3.6675347222222188  2.2005208333333335 2.200520833333335  C 3.6675347222222228 0.733506944444442  5.434027777777778 0  7.5 0  Z " fill-rule="evenodd" />
    </mask>
  </defs>
  <g transform="matrix(1 0 0 1 -294 -841 )">
    <path d="M 7.5 0  L 32.5 0  C 34.56597222222223 0  36.33246527777778 0.733506944444442  37.799479166666664 2.200520833333335  C 39.26649305555556 3.6675347222222188  40 5.434027777777772  40 7.5  L 40 32.5  C 40 34.56597222222222  39.26649305555556 36.33246527777778  37.799479166666664 37.799479166666664  C 36.33246527777778 39.26649305555556  34.56597222222223 40  32.5 40  L 27 40  L 27 24.50520833333333  L 32.786458333333336 24.50520833333333  L 33.567708333333336 18.463541666666664  L 27.604166666666664 18.463541666666664  L 27.604166666666664 14.609375  C 27.604166666666664 13.637152777777771  27.80815972222223 12.907986111111107  28.216145833333336 12.421875  C 28.624131944444446 11.93576388888889  29.418402777777782 11.692708333333336  30.598958333333336 11.692708333333336  L 33.776041666666664 11.666666666666664  L 33.776041666666664 6.276041666666665  C 32.682291666666664 6.119791666666665  31.137152777777782 6.041666666666665  29.140625 6.041666666666665  C 26.779513888888893 6.041666666666665  24.891493055555557 6.736111111111107  23.4765625 8.125  C 22.061631944444446 9.51388888888889  21.354166666666664 11.475694444444443  21.354166666666664 14.010416666666664  L 21.354166666666664 18.463541666666664  L 16.145833333333332 18.463541666666664  L 16.145833333333332 24.50520833333333  L 21 24.50520833333333  L 21 40  L 7.5 40  C 5.434027777777778 40  3.6675347222222228 39.26649305555556  2.2005208333333335 37.799479166666664  C 0.7335069444444443 36.33246527777778  0 34.56597222222222  0 32.5  L 0 7.5  C 0 5.434027777777772  0.7335069444444443 3.6675347222222188  2.2005208333333335 2.200520833333335  C 3.6675347222222228 0.733506944444442  5.434027777777778 0  7.5 0  Z " fill-rule="nonzero" fill="rgba(0, 0, 0, 1)" stroke="none" transform="matrix(1 0 0 1 294 841 )" class="fill" />
    <path d="M 7.5 0  L 32.5 0  C 34.56597222222223 0  36.33246527777778 0.733506944444442  37.799479166666664 2.200520833333335  C 39.26649305555556 3.6675347222222188  40 5.434027777777772  40 7.5  L 40 32.5  C 40 34.56597222222222  39.26649305555556 36.33246527777778  37.799479166666664 37.799479166666664  C 36.33246527777778 39.26649305555556  34.56597222222223 40  32.5 40  L 27 40  L 27 24.50520833333333  L 32.786458333333336 24.50520833333333  L 33.567708333333336 18.463541666666664  L 27.604166666666664 18.463541666666664  L 27.604166666666664 14.609375  C 27.604166666666664 13.637152777777771  27.80815972222223 12.907986111111107  28.216145833333336 12.421875  C 28.624131944444446 11.93576388888889  29.418402777777782 11.692708333333336  30.598958333333336 11.692708333333336  L 33.776041666666664 11.666666666666664  L 33.776041666666664 6.276041666666665  C 32.682291666666664 6.119791666666665  31.137152777777782 6.041666666666665  29.140625 6.041666666666665  C 26.779513888888893 6.041666666666665  24.891493055555557 6.736111111111107  23.4765625 8.125  C 22.061631944444446 9.51388888888889  21.354166666666664 11.475694444444443  21.354166666666664 14.010416666666664  L 21.354166666666664 18.463541666666664  L 16.145833333333332 18.463541666666664  L 16.145833333333332 24.50520833333333  L 21 24.50520833333333  L 21 40  L 7.5 40  C 5.434027777777778 40  3.6675347222222228 39.26649305555556  2.2005208333333335 37.799479166666664  C 0.7335069444444443 36.33246527777778  0 34.56597222222222  0 32.5  L 0 7.5  C 0 5.434027777777772  0.7335069444444443 3.6675347222222188  2.2005208333333335 2.200520833333335  C 3.6675347222222228 0.733506944444442  5.434027777777778 0  7.5 0  Z " stroke-width="0" stroke-dasharray="0" stroke="rgba(255, 255, 255, 0)" fill="none" transform="matrix(1 0 0 1 294 841 )" class="stroke" mask="url(#Clip1009)" />
  </g>
</svg>