<?xml version="1.0" encoding="utf-8"?>
<svg version="1.1" xmlns:xlink="http://www.w3.org/1999/xlink" width="292px" height="170px" xmlns="http://www.w3.org/2000/svg">
  <defs>
    <pattern id="BGPattern" patternUnits="userSpaceOnUse" alignment="0 0" imageRepeat="None" />
    <mask fill="white" id="Clip1080">
      <path d="M 0 170  L 0 0  L 292 0  L 292 170  L 0 170  Z " fill-rule="evenodd" />
    </mask>
  </defs>
  <g transform="matrix(1 0 0 1 -65 -76 )">
    <path d="M 0 170  L 0 0  L 292 0  L 292 170  L 0 170  Z " fill-rule="nonzero" fill="rgba(242, 242, 242, 1)" stroke="none" transform="matrix(1 0 0 1 65 76 )" class="fill" />
    <path d="M 0 170  L 0 0  L 292 0  L 292 170  L 0 170  Z " stroke-width="2" stroke-dasharray="0" stroke="rgba(121, 121, 121, 1)" fill="none" transform="matrix(1 0 0 1 65 76 )" class="stroke" mask="url(#Clip1080)" />
    <path d="M 291.2577978682187 0.43210398083160123  L 0.7422021317813385 169.56789601916842  M 0.7422021317813385 0.43210398083160123  L 291.2577978682187 169.56789601916842  " stroke-width="1" stroke-dasharray="0" stroke="rgba(121, 121, 121, 1)" fill="none" transform="matrix(1 0 0 1 65 76 )" class="stroke" />
  </g>
</svg>